# xmcd
#
# Track frame offsets:
#	150
#	12023
#	31065
#	46485
#	62787
#	81607
#	95687
#	109927
#	126060
#	150868
#	170654
#	183277
#	196325
#	212168
#	226588
#
# Disc length: 3299 seconds
# Revision: 2
# Processed by: cddbd v1.5.2PL0 Copyright (c) Steve Scherf et al.
# Submitted via: dBpowerAMP V12.0
#
DISCID=be0ce10f
DTITLE=Blues Band, The - Thank You Brother Ray
DYEAR=2004
DGENRE=Blues
TTITLE0=Sticks and Stones
TTITLE1=Busted
TTITLE2=Georgia on My Mind
TTITLE3=I Don't Need No Doctor
TTITLE4=Hallelujah I Love Her So
TTITLE5=They're Crazy 'Bout Me
TTITLE6=I'm Moving On
TTITLE7=Lonely Avenue
TTITLE8=Tell Me What You Want Me to Do
TTITLE9=Leave My Woman Alone
TTITLE10=Hard Times
TTITLE11=Makin' Whopee
TTITLE12=Losing Hand
TTITLE13=Let the Good Times Roll
TTITLE14=Thank You Brother Ray
EXTD=
EXTT0=
EXTT1=
EXTT2=
EXTT3=
EXTT4=
EXTT5=
EXTT6=
EXTT7=
EXTT8=
EXTT9=
EXTT10=
EXTT11=
EXTT12=
EXTT13=
EXTT14=
PLAYORDER=
